<mxfile host="Electron" modified="2025-02-28T11:24:34.928Z" agent="Mozilla/5.0 (Windows NT 10.0; Win64; x64) AppleWebKit/537.36 (KHTML, like Gecko) draw.io/21.6.1 Chrome/112.0.5615.204 Electron/24.6.1 Safari/537.36" etag="1GtImWsaZJbXArnHd59O" version="21.6.1" type="device">
  <diagram name="Page-1" id="e7e014a7-5840-1c2e-5031-d8a46d1fe8dd">
    <mxGraphModel dx="1381" dy="808" grid="1" gridSize="10" guides="1" tooltips="1" connect="1" arrows="1" fold="1" page="1" pageScale="1" pageWidth="1169" pageHeight="826" background="none" math="0" shadow="0">
      <root>
        <mxCell id="0" />
        <mxCell id="1" parent="0" />
        <mxCell id="Gs0ZBiKjtMknKWzkRTu3-21" value="User" style="swimlane;whiteSpace=wrap;labelBackgroundColor=none;" parent="1" vertex="1">
          <mxGeometry x="170" y="80" width="275" height="490" as="geometry" />
        </mxCell>
        <mxCell id="5DNnFEGlsIoTg3AIgH0c-6" value="" style="edgeStyle=orthogonalEdgeStyle;rounded=0;orthogonalLoop=1;jettySize=auto;html=1;" edge="1" parent="Gs0ZBiKjtMknKWzkRTu3-21" source="Gs0ZBiKjtMknKWzkRTu3-23" target="_uX2GXrVeYMQv_KTWfhs-5">
          <mxGeometry relative="1" as="geometry" />
        </mxCell>
        <mxCell id="Gs0ZBiKjtMknKWzkRTu3-23" value="" style="ellipse;shape=startState;fillColor=#000000;strokeColor=#ff0000;" parent="Gs0ZBiKjtMknKWzkRTu3-21" vertex="1">
          <mxGeometry x="140" y="45" width="30" height="30" as="geometry" />
        </mxCell>
        <mxCell id="_uX2GXrVeYMQv_KTWfhs-9" value="" style="edgeStyle=orthogonalEdgeStyle;rounded=0;orthogonalLoop=1;jettySize=auto;html=1;" parent="Gs0ZBiKjtMknKWzkRTu3-21" source="_uX2GXrVeYMQv_KTWfhs-5" target="_uX2GXrVeYMQv_KTWfhs-8" edge="1">
          <mxGeometry relative="1" as="geometry" />
        </mxCell>
        <mxCell id="_uX2GXrVeYMQv_KTWfhs-5" value="&lt;font style=&quot;font-size: 10px;&quot;&gt;&lt;span style=&quot;color: rgb(0, 0, 0); font-family: Helvetica; font-style: normal; font-variant-ligatures: normal; font-variant-caps: normal; font-weight: 400; letter-spacing: normal; orphans: 2; text-align: center; text-indent: 0px; text-transform: none; widows: 2; word-spacing: 0px; -webkit-text-stroke-width: 0px; background-color: rgb(251, 251, 251); text-decoration-thickness: initial; text-decoration-style: initial; text-decoration-color: initial; float: none; display: inline !important;&quot;&gt;1.&amp;nbsp;&lt;/span&gt;Modifies the information&lt;/font&gt;" style="rounded=1;whiteSpace=wrap;html=1;verticalAlign=middle;" parent="Gs0ZBiKjtMknKWzkRTu3-21" vertex="1">
          <mxGeometry x="97.5" y="95" width="115" height="50" as="geometry" />
        </mxCell>
        <mxCell id="_uX2GXrVeYMQv_KTWfhs-8" value="&lt;font style=&quot;font-size: 10px;&quot;&gt;&lt;span style=&quot;color: rgb(0, 0, 0); font-family: Helvetica; font-style: normal; font-variant-ligatures: normal; font-variant-caps: normal; font-weight: 400; letter-spacing: normal; orphans: 2; text-align: center; text-indent: 0px; text-transform: none; widows: 2; word-spacing: 0px; -webkit-text-stroke-width: 0px; background-color: rgb(251, 251, 251); text-decoration-thickness: initial; text-decoration-style: initial; text-decoration-color: initial; float: none; display: inline !important;&quot;&gt;2. Submits the change&lt;/span&gt;&lt;/font&gt;" style="rounded=1;whiteSpace=wrap;html=1;verticalAlign=middle;" parent="Gs0ZBiKjtMknKWzkRTu3-21" vertex="1">
          <mxGeometry x="97.5" y="165" width="115" height="50" as="geometry" />
        </mxCell>
        <mxCell id="5DNnFEGlsIoTg3AIgH0c-2" value="" style="edgeStyle=orthogonalEdgeStyle;rounded=0;orthogonalLoop=1;jettySize=auto;html=1;" edge="1" parent="Gs0ZBiKjtMknKWzkRTu3-21" source="5DNnFEGlsIoTg3AIgH0c-1" target="Gs0ZBiKjtMknKWzkRTu3-23">
          <mxGeometry relative="1" as="geometry" />
        </mxCell>
        <mxCell id="5DNnFEGlsIoTg3AIgH0c-1" value="In UC10.2" style="shape=note;size=20;whiteSpace=wrap;html=1;" vertex="1" parent="Gs0ZBiKjtMknKWzkRTu3-21">
          <mxGeometry x="10" y="40" width="90" height="40" as="geometry" />
        </mxCell>
        <mxCell id="Gs0ZBiKjtMknKWzkRTu3-26" value="System" style="swimlane;whiteSpace=wrap" parent="1" vertex="1">
          <mxGeometry x="445" y="80" width="315" height="490" as="geometry" />
        </mxCell>
        <mxCell id="6byGGHJ90E5z8LKPCh8p-14" value="" style="edgeStyle=orthogonalEdgeStyle;rounded=0;orthogonalLoop=1;jettySize=auto;html=1;" parent="Gs0ZBiKjtMknKWzkRTu3-26" source="Gs0ZBiKjtMknKWzkRTu3-34" target="_uX2GXrVeYMQv_KTWfhs-21" edge="1">
          <mxGeometry relative="1" as="geometry">
            <mxPoint x="97.5" y="365" as="targetPoint" />
          </mxGeometry>
        </mxCell>
        <mxCell id="Gs0ZBiKjtMknKWzkRTu3-34" value="&lt;font style=&quot;font-size: 10px;&quot;&gt;&lt;font style=&quot;font-size: 10px;&quot;&gt;4. Updated information in the database&lt;/font&gt;&lt;/font&gt;" style="rounded=1;whiteSpace=wrap;html=1;verticalAlign=middle;" parent="Gs0ZBiKjtMknKWzkRTu3-26" vertex="1">
          <mxGeometry x="47.75" y="298" width="99.5" height="42.5" as="geometry" />
        </mxCell>
        <mxCell id="6byGGHJ90E5z8LKPCh8p-18" value="&lt;font style=&quot;font-size: 10px;&quot;&gt;invalid&lt;/font&gt;" style="text;html=1;align=center;verticalAlign=middle;resizable=0;points=[];autosize=1;strokeColor=none;fillColor=none;" parent="Gs0ZBiKjtMknKWzkRTu3-26" vertex="1">
          <mxGeometry x="119.5" y="230" width="50" height="30" as="geometry" />
        </mxCell>
        <mxCell id="_uX2GXrVeYMQv_KTWfhs-13" value="" style="edgeStyle=orthogonalEdgeStyle;rounded=0;orthogonalLoop=1;jettySize=auto;html=1;" parent="Gs0ZBiKjtMknKWzkRTu3-26" source="_uX2GXrVeYMQv_KTWfhs-10" target="_uX2GXrVeYMQv_KTWfhs-12" edge="1">
          <mxGeometry relative="1" as="geometry" />
        </mxCell>
        <mxCell id="_uX2GXrVeYMQv_KTWfhs-10" value="&lt;font style=&quot;font-size: 10px;&quot;&gt;&lt;span style=&quot;color: rgb(0, 0, 0); font-family: Helvetica; font-style: normal; font-variant-ligatures: normal; font-variant-caps: normal; font-weight: 400; letter-spacing: normal; orphans: 2; text-align: center; text-indent: 0px; text-transform: none; widows: 2; word-spacing: 0px; -webkit-text-stroke-width: 0px; background-color: rgb(251, 251, 251); text-decoration-thickness: initial; text-decoration-style: initial; text-decoration-color: initial; float: none; display: inline !important;&quot;&gt;3. Validates the input&lt;/span&gt;&lt;/font&gt;" style="rounded=1;whiteSpace=wrap;html=1;verticalAlign=middle;" parent="Gs0ZBiKjtMknKWzkRTu3-26" vertex="1">
          <mxGeometry x="40" y="165" width="115" height="50" as="geometry" />
        </mxCell>
        <mxCell id="_uX2GXrVeYMQv_KTWfhs-16" value="" style="edgeStyle=orthogonalEdgeStyle;rounded=0;orthogonalLoop=1;jettySize=auto;html=1;" parent="Gs0ZBiKjtMknKWzkRTu3-26" source="_uX2GXrVeYMQv_KTWfhs-12" target="_uX2GXrVeYMQv_KTWfhs-15" edge="1">
          <mxGeometry relative="1" as="geometry" />
        </mxCell>
        <mxCell id="_uX2GXrVeYMQv_KTWfhs-18" value="" style="edgeStyle=orthogonalEdgeStyle;rounded=0;orthogonalLoop=1;jettySize=auto;html=1;" parent="Gs0ZBiKjtMknKWzkRTu3-26" source="_uX2GXrVeYMQv_KTWfhs-12" target="Gs0ZBiKjtMknKWzkRTu3-34" edge="1">
          <mxGeometry relative="1" as="geometry" />
        </mxCell>
        <mxCell id="_uX2GXrVeYMQv_KTWfhs-12" value="Is valid input?" style="rhombus;fillColor=#ffffc0;strokeColor=#ff0000;whiteSpace=wrap;fontSize=10;" parent="Gs0ZBiKjtMknKWzkRTu3-26" vertex="1">
          <mxGeometry x="57.5" y="235" width="80" height="40" as="geometry" />
        </mxCell>
        <mxCell id="_uX2GXrVeYMQv_KTWfhs-15" value="&lt;font style=&quot;font-size: 10px;&quot;&gt;&lt;span style=&quot;color: rgb(0, 0, 0); font-family: Helvetica; font-style: normal; font-variant-ligatures: normal; font-variant-caps: normal; font-weight: 400; letter-spacing: normal; orphans: 2; text-align: center; text-indent: 0px; text-transform: none; widows: 2; word-spacing: 0px; -webkit-text-stroke-width: 0px; background-color: rgb(251, 251, 251); text-decoration-thickness: initial; text-decoration-style: initial; text-decoration-color: initial; float: none; display: inline !important;&quot;&gt;3a. Displays detailed error message&lt;/span&gt;&lt;/font&gt;" style="rounded=1;whiteSpace=wrap;html=1;verticalAlign=middle;" parent="Gs0ZBiKjtMknKWzkRTu3-26" vertex="1">
          <mxGeometry x="164.5" y="230" width="115" height="50" as="geometry" />
        </mxCell>
        <mxCell id="_uX2GXrVeYMQv_KTWfhs-19" value="&lt;font style=&quot;font-size: 10px;&quot;&gt;valid&lt;/font&gt;" style="text;html=1;align=center;verticalAlign=middle;resizable=0;points=[];autosize=1;strokeColor=none;fillColor=none;" parent="Gs0ZBiKjtMknKWzkRTu3-26" vertex="1">
          <mxGeometry x="65" y="268" width="40" height="30" as="geometry" />
        </mxCell>
        <mxCell id="_uX2GXrVeYMQv_KTWfhs-24" value="" style="edgeStyle=orthogonalEdgeStyle;rounded=0;orthogonalLoop=1;jettySize=auto;html=1;" parent="Gs0ZBiKjtMknKWzkRTu3-26" source="_uX2GXrVeYMQv_KTWfhs-21" target="_uX2GXrVeYMQv_KTWfhs-30" edge="1">
          <mxGeometry relative="1" as="geometry">
            <mxPoint x="97.5" y="505" as="targetPoint" />
          </mxGeometry>
        </mxCell>
        <mxCell id="_uX2GXrVeYMQv_KTWfhs-21" value="&lt;font style=&quot;font-size: 10px;&quot;&gt;&lt;font style=&quot;font-size: 10px;&quot;&gt;&lt;font style=&quot;font-size: 10px;&quot;&gt;5.&amp;nbsp;&lt;/font&gt;&lt;/font&gt;Displays a success message&lt;/font&gt;" style="rounded=1;whiteSpace=wrap;html=1;verticalAlign=middle;" parent="Gs0ZBiKjtMknKWzkRTu3-26" vertex="1">
          <mxGeometry x="41.599999999999994" y="365" width="111.81" height="60" as="geometry" />
        </mxCell>
        <mxCell id="_uX2GXrVeYMQv_KTWfhs-30" value="" style="ellipse;html=1;shape=endState;fillColor=#000000;strokeColor=#ff0000;" parent="Gs0ZBiKjtMknKWzkRTu3-26" vertex="1">
          <mxGeometry x="82.5" y="445" width="30" height="30" as="geometry" />
        </mxCell>
        <mxCell id="Gs0ZBiKjtMknKWzkRTu3-25" value="UC10.1 - Update user profile" style="text;html=1;align=center;verticalAlign=middle;resizable=0;points=[];autosize=1;strokeColor=none;fillColor=none;" parent="1" vertex="1">
          <mxGeometry x="175" y="50" width="180" height="30" as="geometry" />
        </mxCell>
        <mxCell id="_uX2GXrVeYMQv_KTWfhs-11" style="edgeStyle=orthogonalEdgeStyle;rounded=0;orthogonalLoop=1;jettySize=auto;html=1;" parent="1" source="_uX2GXrVeYMQv_KTWfhs-8" target="_uX2GXrVeYMQv_KTWfhs-10" edge="1">
          <mxGeometry relative="1" as="geometry" />
        </mxCell>
        <mxCell id="_uX2GXrVeYMQv_KTWfhs-17" style="edgeStyle=orthogonalEdgeStyle;rounded=0;orthogonalLoop=1;jettySize=auto;html=1;" parent="1" source="_uX2GXrVeYMQv_KTWfhs-15" target="_uX2GXrVeYMQv_KTWfhs-5" edge="1">
          <mxGeometry relative="1" as="geometry">
            <Array as="points">
              <mxPoint x="740" y="335" />
              <mxPoint x="740" y="205" />
            </Array>
          </mxGeometry>
        </mxCell>
        <mxCell id="_uX2GXrVeYMQv_KTWfhs-41" value="User" style="swimlane;whiteSpace=wrap;labelBackgroundColor=none;" parent="1" vertex="1">
          <mxGeometry x="890" y="80" width="280" height="265" as="geometry" />
        </mxCell>
        <mxCell id="5DNnFEGlsIoTg3AIgH0c-11" value="" style="edgeStyle=orthogonalEdgeStyle;rounded=0;orthogonalLoop=1;jettySize=auto;html=1;" edge="1" parent="_uX2GXrVeYMQv_KTWfhs-41" source="5DNnFEGlsIoTg3AIgH0c-7" target="5DNnFEGlsIoTg3AIgH0c-8">
          <mxGeometry relative="1" as="geometry" />
        </mxCell>
        <mxCell id="5DNnFEGlsIoTg3AIgH0c-7" value="" style="ellipse;shape=startState;fillColor=#000000;strokeColor=#ff0000;" vertex="1" parent="_uX2GXrVeYMQv_KTWfhs-41">
          <mxGeometry x="160" y="55" width="30" height="30" as="geometry" />
        </mxCell>
        <mxCell id="5DNnFEGlsIoTg3AIgH0c-8" value="&lt;font style=&quot;font-size: 10px;&quot;&gt;&lt;span style=&quot;color: rgb(0, 0, 0); font-family: Helvetica; font-style: normal; font-variant-ligatures: normal; font-variant-caps: normal; font-weight: 400; letter-spacing: normal; orphans: 2; text-align: center; text-indent: 0px; text-transform: none; widows: 2; word-spacing: 0px; -webkit-text-stroke-width: 0px; background-color: rgb(251, 251, 251); text-decoration-thickness: initial; text-decoration-style: initial; text-decoration-color: initial; float: none; display: inline !important;&quot;&gt;1.&amp;nbsp;&lt;/span&gt;Accesses to the profile page&lt;/font&gt;" style="rounded=1;whiteSpace=wrap;html=1;verticalAlign=middle;" vertex="1" parent="_uX2GXrVeYMQv_KTWfhs-41">
          <mxGeometry x="117.5" y="115" width="115" height="50" as="geometry" />
        </mxCell>
        <mxCell id="5DNnFEGlsIoTg3AIgH0c-10" value="" style="edgeStyle=orthogonalEdgeStyle;rounded=0;orthogonalLoop=1;jettySize=auto;html=1;" edge="1" parent="_uX2GXrVeYMQv_KTWfhs-41" source="5DNnFEGlsIoTg3AIgH0c-9" target="5DNnFEGlsIoTg3AIgH0c-7">
          <mxGeometry relative="1" as="geometry" />
        </mxCell>
        <mxCell id="5DNnFEGlsIoTg3AIgH0c-9" value="User is logged in" style="shape=note;size=20;whiteSpace=wrap;html=1;" vertex="1" parent="_uX2GXrVeYMQv_KTWfhs-41">
          <mxGeometry x="19" y="45" width="100" height="50" as="geometry" />
        </mxCell>
        <mxCell id="_uX2GXrVeYMQv_KTWfhs-48" value="System" style="swimlane;whiteSpace=wrap" parent="1" vertex="1">
          <mxGeometry x="1170" y="80" width="310" height="265" as="geometry" />
        </mxCell>
        <mxCell id="5DNnFEGlsIoTg3AIgH0c-15" value="" style="edgeStyle=orthogonalEdgeStyle;rounded=0;orthogonalLoop=1;jettySize=auto;html=1;" edge="1" parent="_uX2GXrVeYMQv_KTWfhs-48" source="5DNnFEGlsIoTg3AIgH0c-12" target="5DNnFEGlsIoTg3AIgH0c-14">
          <mxGeometry relative="1" as="geometry" />
        </mxCell>
        <mxCell id="5DNnFEGlsIoTg3AIgH0c-12" value="&lt;font style=&quot;font-size: 10px;&quot;&gt;&lt;span style=&quot;color: rgb(0, 0, 0); font-family: Helvetica; font-style: normal; font-variant-ligatures: normal; font-variant-caps: normal; font-weight: 400; letter-spacing: normal; orphans: 2; text-align: center; text-indent: 0px; text-transform: none; widows: 2; word-spacing: 0px; -webkit-text-stroke-width: 0px; background-color: rgb(251, 251, 251); text-decoration-thickness: initial; text-decoration-style: initial; text-decoration-color: initial; float: none; display: inline !important;&quot;&gt;2. Retrieves the user&#39;s current data&lt;/span&gt;&lt;/font&gt;" style="rounded=1;whiteSpace=wrap;html=1;verticalAlign=middle;" vertex="1" parent="_uX2GXrVeYMQv_KTWfhs-48">
          <mxGeometry x="97.5" y="115" width="115" height="50" as="geometry" />
        </mxCell>
        <mxCell id="5DNnFEGlsIoTg3AIgH0c-14" value="&lt;font style=&quot;font-size: 10px;&quot;&gt;&lt;span style=&quot;color: rgb(0, 0, 0); font-family: Helvetica; font-style: normal; font-variant-ligatures: normal; font-variant-caps: normal; font-weight: 400; letter-spacing: normal; orphans: 2; text-align: center; text-indent: 0px; text-transform: none; widows: 2; word-spacing: 0px; -webkit-text-stroke-width: 0px; background-color: rgb(251, 251, 251); text-decoration-thickness: initial; text-decoration-style: initial; text-decoration-color: initial; float: none; display: inline !important;&quot;&gt;3. Displays the information&lt;/span&gt;&lt;/font&gt;" style="rounded=1;whiteSpace=wrap;html=1;verticalAlign=middle;" vertex="1" parent="_uX2GXrVeYMQv_KTWfhs-48">
          <mxGeometry x="97.5" y="195" width="115" height="50" as="geometry" />
        </mxCell>
        <mxCell id="_uX2GXrVeYMQv_KTWfhs-83" value="UC10.2 - View user profile" style="text;html=1;align=center;verticalAlign=middle;resizable=0;points=[];autosize=1;strokeColor=none;fillColor=none;" parent="1" vertex="1">
          <mxGeometry x="890" y="50" width="160" height="30" as="geometry" />
        </mxCell>
        <mxCell id="5DNnFEGlsIoTg3AIgH0c-13" style="edgeStyle=orthogonalEdgeStyle;rounded=0;orthogonalLoop=1;jettySize=auto;html=1;" edge="1" parent="1" source="5DNnFEGlsIoTg3AIgH0c-8" target="5DNnFEGlsIoTg3AIgH0c-12">
          <mxGeometry relative="1" as="geometry" />
        </mxCell>
        <mxCell id="5DNnFEGlsIoTg3AIgH0c-16" value="User" style="swimlane;whiteSpace=wrap;labelBackgroundColor=none;" vertex="1" parent="1">
          <mxGeometry x="2155" y="80" width="280" height="450" as="geometry" />
        </mxCell>
        <mxCell id="5DNnFEGlsIoTg3AIgH0c-17" value="" style="edgeStyle=orthogonalEdgeStyle;rounded=0;orthogonalLoop=1;jettySize=auto;html=1;" edge="1" parent="5DNnFEGlsIoTg3AIgH0c-16" source="5DNnFEGlsIoTg3AIgH0c-18" target="5DNnFEGlsIoTg3AIgH0c-19">
          <mxGeometry relative="1" as="geometry" />
        </mxCell>
        <mxCell id="5DNnFEGlsIoTg3AIgH0c-18" value="" style="ellipse;shape=startState;fillColor=#000000;strokeColor=#ff0000;" vertex="1" parent="5DNnFEGlsIoTg3AIgH0c-16">
          <mxGeometry x="160" y="55" width="30" height="30" as="geometry" />
        </mxCell>
        <mxCell id="5DNnFEGlsIoTg3AIgH0c-19" value="&lt;font style=&quot;font-size: 10px;&quot;&gt;&lt;span style=&quot;color: rgb(0, 0, 0); font-family: Helvetica; font-style: normal; font-variant-ligatures: normal; font-variant-caps: normal; font-weight: 400; letter-spacing: normal; orphans: 2; text-align: center; text-indent: 0px; text-transform: none; widows: 2; word-spacing: 0px; -webkit-text-stroke-width: 0px; background-color: rgb(251, 251, 251); text-decoration-thickness: initial; text-decoration-style: initial; text-decoration-color: initial; float: none; display: inline !important;&quot;&gt;1.&amp;nbsp;&lt;/span&gt;Accesses to the order history&amp;nbsp;page&lt;/font&gt;" style="rounded=1;whiteSpace=wrap;html=1;verticalAlign=middle;" vertex="1" parent="5DNnFEGlsIoTg3AIgH0c-16">
          <mxGeometry x="117.5" y="115" width="115" height="50" as="geometry" />
        </mxCell>
        <mxCell id="5DNnFEGlsIoTg3AIgH0c-20" value="" style="edgeStyle=orthogonalEdgeStyle;rounded=0;orthogonalLoop=1;jettySize=auto;html=1;" edge="1" parent="5DNnFEGlsIoTg3AIgH0c-16" source="5DNnFEGlsIoTg3AIgH0c-21" target="5DNnFEGlsIoTg3AIgH0c-18">
          <mxGeometry relative="1" as="geometry" />
        </mxCell>
        <mxCell id="5DNnFEGlsIoTg3AIgH0c-21" value="User is logged in" style="shape=note;size=20;whiteSpace=wrap;html=1;" vertex="1" parent="5DNnFEGlsIoTg3AIgH0c-16">
          <mxGeometry x="19" y="45" width="100" height="50" as="geometry" />
        </mxCell>
        <mxCell id="5DNnFEGlsIoTg3AIgH0c-22" value="System" style="swimlane;whiteSpace=wrap" vertex="1" parent="1">
          <mxGeometry x="2435" y="80" width="310" height="450" as="geometry" />
        </mxCell>
        <mxCell id="5DNnFEGlsIoTg3AIgH0c-23" value="" style="edgeStyle=orthogonalEdgeStyle;rounded=0;orthogonalLoop=1;jettySize=auto;html=1;" edge="1" parent="5DNnFEGlsIoTg3AIgH0c-22" source="5DNnFEGlsIoTg3AIgH0c-24" target="5DNnFEGlsIoTg3AIgH0c-28">
          <mxGeometry relative="1" as="geometry">
            <mxPoint x="155.0232558139537" y="195" as="targetPoint" />
          </mxGeometry>
        </mxCell>
        <mxCell id="5DNnFEGlsIoTg3AIgH0c-24" value="&lt;font style=&quot;font-size: 10px;&quot;&gt;&lt;span style=&quot;color: rgb(0, 0, 0); font-family: Helvetica; font-style: normal; font-variant-ligatures: normal; font-variant-caps: normal; font-weight: 400; letter-spacing: normal; orphans: 2; text-align: center; text-indent: 0px; text-transform: none; widows: 2; word-spacing: 0px; -webkit-text-stroke-width: 0px; background-color: rgb(251, 251, 251); text-decoration-thickness: initial; text-decoration-style: initial; text-decoration-color: initial; float: none; display: inline !important;&quot;&gt;2. Retrieves all the order in the user&lt;/span&gt;&lt;/font&gt;" style="rounded=1;whiteSpace=wrap;html=1;verticalAlign=middle;" vertex="1" parent="5DNnFEGlsIoTg3AIgH0c-22">
          <mxGeometry x="97.5" y="115" width="115" height="50" as="geometry" />
        </mxCell>
        <mxCell id="5DNnFEGlsIoTg3AIgH0c-30" value="" style="edgeStyle=orthogonalEdgeStyle;rounded=0;orthogonalLoop=1;jettySize=auto;html=1;" edge="1" parent="5DNnFEGlsIoTg3AIgH0c-22" source="5DNnFEGlsIoTg3AIgH0c-28" target="5DNnFEGlsIoTg3AIgH0c-29">
          <mxGeometry relative="1" as="geometry" />
        </mxCell>
        <mxCell id="5DNnFEGlsIoTg3AIgH0c-28" value="&lt;font style=&quot;font-size: 10px;&quot;&gt;&lt;span style=&quot;color: rgb(0, 0, 0); font-family: Helvetica; font-style: normal; font-variant-ligatures: normal; font-variant-caps: normal; font-weight: 400; letter-spacing: normal; orphans: 2; text-align: center; text-indent: 0px; text-transform: none; widows: 2; word-spacing: 0px; -webkit-text-stroke-width: 0px; background-color: rgb(251, 251, 251); text-decoration-thickness: initial; text-decoration-style: initial; text-decoration-color: initial; float: none; display: inline !important;&quot;&gt;3. Checks the result&lt;/span&gt;&lt;/font&gt;" style="rounded=1;whiteSpace=wrap;html=1;verticalAlign=middle;" vertex="1" parent="5DNnFEGlsIoTg3AIgH0c-22">
          <mxGeometry x="97.5" y="190" width="115" height="50" as="geometry" />
        </mxCell>
        <mxCell id="5DNnFEGlsIoTg3AIgH0c-33" style="edgeStyle=orthogonalEdgeStyle;rounded=0;orthogonalLoop=1;jettySize=auto;html=1;" edge="1" parent="5DNnFEGlsIoTg3AIgH0c-22" source="5DNnFEGlsIoTg3AIgH0c-29" target="5DNnFEGlsIoTg3AIgH0c-32">
          <mxGeometry relative="1" as="geometry">
            <Array as="points">
              <mxPoint x="70" y="280" />
            </Array>
          </mxGeometry>
        </mxCell>
        <mxCell id="5DNnFEGlsIoTg3AIgH0c-34" style="edgeStyle=orthogonalEdgeStyle;rounded=0;orthogonalLoop=1;jettySize=auto;html=1;" edge="1" parent="5DNnFEGlsIoTg3AIgH0c-22" source="5DNnFEGlsIoTg3AIgH0c-29" target="5DNnFEGlsIoTg3AIgH0c-31">
          <mxGeometry relative="1" as="geometry">
            <Array as="points">
              <mxPoint x="240" y="280" />
            </Array>
          </mxGeometry>
        </mxCell>
        <mxCell id="5DNnFEGlsIoTg3AIgH0c-29" value="Have results?" style="rhombus;fillColor=#ffffc0;strokeColor=#ff0000;whiteSpace=wrap;fontSize=10;" vertex="1" parent="5DNnFEGlsIoTg3AIgH0c-22">
          <mxGeometry x="115" y="260" width="80" height="40" as="geometry" />
        </mxCell>
        <mxCell id="5DNnFEGlsIoTg3AIgH0c-39" style="edgeStyle=orthogonalEdgeStyle;rounded=0;orthogonalLoop=1;jettySize=auto;html=1;" edge="1" parent="5DNnFEGlsIoTg3AIgH0c-22" source="5DNnFEGlsIoTg3AIgH0c-31" target="5DNnFEGlsIoTg3AIgH0c-37">
          <mxGeometry relative="1" as="geometry">
            <Array as="points">
              <mxPoint x="245" y="405" />
            </Array>
          </mxGeometry>
        </mxCell>
        <mxCell id="5DNnFEGlsIoTg3AIgH0c-31" value="&lt;font style=&quot;font-size: 10px;&quot;&gt;&lt;span style=&quot;color: rgb(0, 0, 0); font-family: Helvetica; font-style: normal; font-variant-ligatures: normal; font-variant-caps: normal; font-weight: 400; letter-spacing: normal; orphans: 2; text-align: center; text-indent: 0px; text-transform: none; widows: 2; word-spacing: 0px; -webkit-text-stroke-width: 0px; background-color: rgb(251, 251, 251); text-decoration-thickness: initial; text-decoration-style: initial; text-decoration-color: initial; float: none; display: inline !important;&quot;&gt;3a. Displays a message &quot;No result found&quot;&lt;/span&gt;&lt;/font&gt;" style="rounded=1;whiteSpace=wrap;html=1;verticalAlign=middle;" vertex="1" parent="5DNnFEGlsIoTg3AIgH0c-22">
          <mxGeometry x="195" y="320" width="100" height="50" as="geometry" />
        </mxCell>
        <mxCell id="5DNnFEGlsIoTg3AIgH0c-38" style="edgeStyle=orthogonalEdgeStyle;rounded=0;orthogonalLoop=1;jettySize=auto;html=1;" edge="1" parent="5DNnFEGlsIoTg3AIgH0c-22" source="5DNnFEGlsIoTg3AIgH0c-32" target="5DNnFEGlsIoTg3AIgH0c-37">
          <mxGeometry relative="1" as="geometry">
            <Array as="points">
              <mxPoint x="70" y="405" />
            </Array>
          </mxGeometry>
        </mxCell>
        <mxCell id="5DNnFEGlsIoTg3AIgH0c-32" value="&lt;font style=&quot;font-size: 10px;&quot;&gt;&lt;span style=&quot;color: rgb(0, 0, 0); font-family: Helvetica; font-style: normal; font-variant-ligatures: normal; font-variant-caps: normal; font-weight: 400; letter-spacing: normal; orphans: 2; text-align: center; text-indent: 0px; text-transform: none; widows: 2; word-spacing: 0px; -webkit-text-stroke-width: 0px; background-color: rgb(251, 251, 251); text-decoration-thickness: initial; text-decoration-style: initial; text-decoration-color: initial; float: none; display: inline !important;&quot;&gt;4.&amp;nbsp; Displays the list of user&#39;s order history&lt;/span&gt;&lt;/font&gt;" style="rounded=1;whiteSpace=wrap;html=1;verticalAlign=middle;" vertex="1" parent="5DNnFEGlsIoTg3AIgH0c-22">
          <mxGeometry x="20" y="320" width="100" height="50" as="geometry" />
        </mxCell>
        <mxCell id="5DNnFEGlsIoTg3AIgH0c-36" value="&lt;font style=&quot;font-size: 10px;&quot;&gt;no&lt;/font&gt;" style="text;html=1;align=center;verticalAlign=middle;resizable=0;points=[];autosize=1;strokeColor=none;fillColor=none;" vertex="1" parent="5DNnFEGlsIoTg3AIgH0c-22">
          <mxGeometry x="190" y="260" width="30" height="30" as="geometry" />
        </mxCell>
        <mxCell id="5DNnFEGlsIoTg3AIgH0c-37" value="" style="ellipse;html=1;shape=endState;fillColor=#000000;strokeColor=#ff0000;" vertex="1" parent="5DNnFEGlsIoTg3AIgH0c-22">
          <mxGeometry x="140" y="390" width="30" height="30" as="geometry" />
        </mxCell>
        <mxCell id="5DNnFEGlsIoTg3AIgH0c-26" value="UC10.4 - View order history" style="text;html=1;align=center;verticalAlign=middle;resizable=0;points=[];autosize=1;strokeColor=none;fillColor=none;" vertex="1" parent="1">
          <mxGeometry x="2150" y="50" width="170" height="30" as="geometry" />
        </mxCell>
        <mxCell id="5DNnFEGlsIoTg3AIgH0c-27" style="edgeStyle=orthogonalEdgeStyle;rounded=0;orthogonalLoop=1;jettySize=auto;html=1;" edge="1" parent="1" source="5DNnFEGlsIoTg3AIgH0c-19" target="5DNnFEGlsIoTg3AIgH0c-24">
          <mxGeometry relative="1" as="geometry" />
        </mxCell>
        <mxCell id="5DNnFEGlsIoTg3AIgH0c-35" value="&lt;font style=&quot;font-size: 10px;&quot;&gt;yes&lt;/font&gt;" style="text;html=1;align=center;verticalAlign=middle;resizable=0;points=[];autosize=1;strokeColor=none;fillColor=none;" vertex="1" parent="1">
          <mxGeometry x="2525" y="338" width="40" height="30" as="geometry" />
        </mxCell>
        <mxCell id="5DNnFEGlsIoTg3AIgH0c-40" value="User" style="swimlane;whiteSpace=wrap;labelBackgroundColor=none;" vertex="1" parent="1">
          <mxGeometry x="1515" y="80" width="280" height="450" as="geometry" />
        </mxCell>
        <mxCell id="5DNnFEGlsIoTg3AIgH0c-41" value="" style="edgeStyle=orthogonalEdgeStyle;rounded=0;orthogonalLoop=1;jettySize=auto;html=1;" edge="1" parent="5DNnFEGlsIoTg3AIgH0c-40" source="5DNnFEGlsIoTg3AIgH0c-42" target="5DNnFEGlsIoTg3AIgH0c-43">
          <mxGeometry relative="1" as="geometry" />
        </mxCell>
        <mxCell id="5DNnFEGlsIoTg3AIgH0c-42" value="" style="ellipse;shape=startState;fillColor=#000000;strokeColor=#ff0000;" vertex="1" parent="5DNnFEGlsIoTg3AIgH0c-40">
          <mxGeometry x="160" y="55" width="30" height="30" as="geometry" />
        </mxCell>
        <mxCell id="5DNnFEGlsIoTg3AIgH0c-43" value="&lt;font style=&quot;font-size: 10px;&quot;&gt;&lt;span style=&quot;color: rgb(0, 0, 0); font-family: Helvetica; font-style: normal; font-variant-ligatures: normal; font-variant-caps: normal; font-weight: 400; letter-spacing: normal; orphans: 2; text-align: center; text-indent: 0px; text-transform: none; widows: 2; word-spacing: 0px; -webkit-text-stroke-width: 0px; background-color: rgb(251, 251, 251); text-decoration-thickness: initial; text-decoration-style: initial; text-decoration-color: initial; float: none; display: inline !important;&quot;&gt;1.&amp;nbsp;&lt;/span&gt;Clicks to specific order in the order history page&lt;/font&gt;" style="rounded=1;whiteSpace=wrap;html=1;verticalAlign=middle;" vertex="1" parent="5DNnFEGlsIoTg3AIgH0c-40">
          <mxGeometry x="117.5" y="115" width="115" height="50" as="geometry" />
        </mxCell>
        <mxCell id="5DNnFEGlsIoTg3AIgH0c-44" value="" style="edgeStyle=orthogonalEdgeStyle;rounded=0;orthogonalLoop=1;jettySize=auto;html=1;" edge="1" parent="5DNnFEGlsIoTg3AIgH0c-40" source="5DNnFEGlsIoTg3AIgH0c-45" target="5DNnFEGlsIoTg3AIgH0c-42">
          <mxGeometry relative="1" as="geometry" />
        </mxCell>
        <mxCell id="5DNnFEGlsIoTg3AIgH0c-45" value="In UC10.4" style="shape=note;size=20;whiteSpace=wrap;html=1;" vertex="1" parent="5DNnFEGlsIoTg3AIgH0c-40">
          <mxGeometry x="19" y="45" width="100" height="50" as="geometry" />
        </mxCell>
        <mxCell id="5DNnFEGlsIoTg3AIgH0c-46" value="System" style="swimlane;whiteSpace=wrap" vertex="1" parent="1">
          <mxGeometry x="1795" y="80" width="310" height="450" as="geometry" />
        </mxCell>
        <mxCell id="5DNnFEGlsIoTg3AIgH0c-47" value="" style="edgeStyle=orthogonalEdgeStyle;rounded=0;orthogonalLoop=1;jettySize=auto;html=1;" edge="1" parent="5DNnFEGlsIoTg3AIgH0c-46" source="5DNnFEGlsIoTg3AIgH0c-48" target="5DNnFEGlsIoTg3AIgH0c-50">
          <mxGeometry relative="1" as="geometry">
            <mxPoint x="155.0232558139537" y="195" as="targetPoint" />
          </mxGeometry>
        </mxCell>
        <mxCell id="5DNnFEGlsIoTg3AIgH0c-48" value="&lt;font style=&quot;font-size: 10px;&quot;&gt;&lt;span style=&quot;color: rgb(0, 0, 0); font-family: Helvetica; font-style: normal; font-variant-ligatures: normal; font-variant-caps: normal; font-weight: 400; letter-spacing: normal; orphans: 2; text-align: center; text-indent: 0px; text-transform: none; widows: 2; word-spacing: 0px; -webkit-text-stroke-width: 0px; background-color: rgb(251, 251, 251); text-decoration-thickness: initial; text-decoration-style: initial; text-decoration-color: initial; float: none; display: inline !important;&quot;&gt;2. Retrieves the selected order&#39;s details from the database&lt;/span&gt;&lt;/font&gt;" style="rounded=1;whiteSpace=wrap;html=1;verticalAlign=middle;" vertex="1" parent="5DNnFEGlsIoTg3AIgH0c-46">
          <mxGeometry x="97.5" y="115" width="115" height="50" as="geometry" />
        </mxCell>
        <mxCell id="5DNnFEGlsIoTg3AIgH0c-49" value="" style="edgeStyle=orthogonalEdgeStyle;rounded=0;orthogonalLoop=1;jettySize=auto;html=1;" edge="1" parent="5DNnFEGlsIoTg3AIgH0c-46" source="5DNnFEGlsIoTg3AIgH0c-50" target="5DNnFEGlsIoTg3AIgH0c-53">
          <mxGeometry relative="1" as="geometry" />
        </mxCell>
        <mxCell id="5DNnFEGlsIoTg3AIgH0c-50" value="&lt;font style=&quot;font-size: 10px;&quot;&gt;&lt;span style=&quot;color: rgb(0, 0, 0); font-family: Helvetica; font-style: normal; font-variant-ligatures: normal; font-variant-caps: normal; font-weight: 400; letter-spacing: normal; orphans: 2; text-align: center; text-indent: 0px; text-transform: none; widows: 2; word-spacing: 0px; -webkit-text-stroke-width: 0px; background-color: rgb(251, 251, 251); text-decoration-thickness: initial; text-decoration-style: initial; text-decoration-color: initial; float: none; display: inline !important;&quot;&gt;3. Checks the order exists&lt;/span&gt;&lt;/font&gt;" style="rounded=1;whiteSpace=wrap;html=1;verticalAlign=middle;" vertex="1" parent="5DNnFEGlsIoTg3AIgH0c-46">
          <mxGeometry x="97.5" y="190" width="115" height="50" as="geometry" />
        </mxCell>
        <mxCell id="5DNnFEGlsIoTg3AIgH0c-51" style="edgeStyle=orthogonalEdgeStyle;rounded=0;orthogonalLoop=1;jettySize=auto;html=1;" edge="1" parent="5DNnFEGlsIoTg3AIgH0c-46" source="5DNnFEGlsIoTg3AIgH0c-53" target="5DNnFEGlsIoTg3AIgH0c-57">
          <mxGeometry relative="1" as="geometry">
            <Array as="points">
              <mxPoint x="65" y="280" />
            </Array>
          </mxGeometry>
        </mxCell>
        <mxCell id="5DNnFEGlsIoTg3AIgH0c-52" style="edgeStyle=orthogonalEdgeStyle;rounded=0;orthogonalLoop=1;jettySize=auto;html=1;" edge="1" parent="5DNnFEGlsIoTg3AIgH0c-46" source="5DNnFEGlsIoTg3AIgH0c-53" target="5DNnFEGlsIoTg3AIgH0c-55">
          <mxGeometry relative="1" as="geometry">
            <Array as="points">
              <mxPoint x="245" y="280" />
            </Array>
          </mxGeometry>
        </mxCell>
        <mxCell id="5DNnFEGlsIoTg3AIgH0c-53" value="Is exist?" style="rhombus;fillColor=#ffffc0;strokeColor=#ff0000;whiteSpace=wrap;fontSize=10;" vertex="1" parent="5DNnFEGlsIoTg3AIgH0c-46">
          <mxGeometry x="115" y="260" width="80" height="40" as="geometry" />
        </mxCell>
        <mxCell id="5DNnFEGlsIoTg3AIgH0c-65" value="" style="edgeStyle=orthogonalEdgeStyle;rounded=0;orthogonalLoop=1;jettySize=auto;html=1;" edge="1" parent="5DNnFEGlsIoTg3AIgH0c-46" source="5DNnFEGlsIoTg3AIgH0c-55" target="5DNnFEGlsIoTg3AIgH0c-64">
          <mxGeometry relative="1" as="geometry" />
        </mxCell>
        <mxCell id="5DNnFEGlsIoTg3AIgH0c-55" value="&lt;font style=&quot;font-size: 10px;&quot;&gt;&lt;span style=&quot;color: rgb(0, 0, 0); font-family: Helvetica; font-style: normal; font-variant-ligatures: normal; font-variant-caps: normal; font-weight: 400; letter-spacing: normal; orphans: 2; text-align: center; text-indent: 0px; text-transform: none; widows: 2; word-spacing: 0px; -webkit-text-stroke-width: 0px; background-color: rgb(251, 251, 251); text-decoration-thickness: initial; text-decoration-style: initial; text-decoration-color: initial; float: none; display: inline !important;&quot;&gt;3a. Redirects user to not found page&lt;/span&gt;&lt;/font&gt;" style="rounded=1;whiteSpace=wrap;html=1;verticalAlign=middle;" vertex="1" parent="5DNnFEGlsIoTg3AIgH0c-46">
          <mxGeometry x="195" y="308" width="100" height="50" as="geometry" />
        </mxCell>
        <mxCell id="5DNnFEGlsIoTg3AIgH0c-63" value="" style="edgeStyle=orthogonalEdgeStyle;rounded=0;orthogonalLoop=1;jettySize=auto;html=1;" edge="1" parent="5DNnFEGlsIoTg3AIgH0c-46" source="5DNnFEGlsIoTg3AIgH0c-57" target="5DNnFEGlsIoTg3AIgH0c-59">
          <mxGeometry relative="1" as="geometry" />
        </mxCell>
        <mxCell id="5DNnFEGlsIoTg3AIgH0c-57" value="&lt;font style=&quot;font-size: 10px;&quot;&gt;&lt;font style=&quot;font-size: 10px;&quot;&gt;&lt;span style=&quot;color: rgb(0, 0, 0); font-family: Helvetica; font-style: normal; font-variant-ligatures: normal; font-variant-caps: normal; font-weight: 400; letter-spacing: normal; orphans: 2; text-align: center; text-indent: 0px; text-transform: none; widows: 2; word-spacing: 0px; -webkit-text-stroke-width: 0px; background-color: rgb(251, 251, 251); text-decoration-thickness: initial; text-decoration-style: initial; text-decoration-color: initial; float: none; display: inline !important;&quot;&gt;4.&amp;nbsp;&lt;/span&gt;&lt;/font&gt;Displays detailed information.&lt;/font&gt;" style="rounded=1;whiteSpace=wrap;html=1;verticalAlign=middle;" vertex="1" parent="5DNnFEGlsIoTg3AIgH0c-46">
          <mxGeometry x="15" y="308" width="100" height="50" as="geometry" />
        </mxCell>
        <mxCell id="5DNnFEGlsIoTg3AIgH0c-58" value="&lt;font style=&quot;font-size: 10px;&quot;&gt;no&lt;/font&gt;" style="text;html=1;align=center;verticalAlign=middle;resizable=0;points=[];autosize=1;strokeColor=none;fillColor=none;" vertex="1" parent="5DNnFEGlsIoTg3AIgH0c-46">
          <mxGeometry x="190" y="260" width="30" height="30" as="geometry" />
        </mxCell>
        <mxCell id="5DNnFEGlsIoTg3AIgH0c-59" value="" style="ellipse;html=1;shape=endState;fillColor=#000000;strokeColor=#ff0000;" vertex="1" parent="5DNnFEGlsIoTg3AIgH0c-46">
          <mxGeometry x="50" y="380" width="30" height="30" as="geometry" />
        </mxCell>
        <mxCell id="5DNnFEGlsIoTg3AIgH0c-64" value="" style="shape=sumEllipse;perimeter=ellipsePerimeter;html=1;backgroundOutline=1;" vertex="1" parent="5DNnFEGlsIoTg3AIgH0c-46">
          <mxGeometry x="230" y="380" width="30" height="30" as="geometry" />
        </mxCell>
        <mxCell id="5DNnFEGlsIoTg3AIgH0c-60" value="UC10.3 - View order details" style="text;html=1;align=center;verticalAlign=middle;resizable=0;points=[];autosize=1;strokeColor=none;fillColor=none;" vertex="1" parent="1">
          <mxGeometry x="1510" y="50" width="170" height="30" as="geometry" />
        </mxCell>
        <mxCell id="5DNnFEGlsIoTg3AIgH0c-61" style="edgeStyle=orthogonalEdgeStyle;rounded=0;orthogonalLoop=1;jettySize=auto;html=1;" edge="1" parent="1" source="5DNnFEGlsIoTg3AIgH0c-43" target="5DNnFEGlsIoTg3AIgH0c-48">
          <mxGeometry relative="1" as="geometry" />
        </mxCell>
        <mxCell id="5DNnFEGlsIoTg3AIgH0c-62" value="&lt;font style=&quot;font-size: 10px;&quot;&gt;yes&lt;/font&gt;" style="text;html=1;align=center;verticalAlign=middle;resizable=0;points=[];autosize=1;strokeColor=none;fillColor=none;" vertex="1" parent="1">
          <mxGeometry x="1885" y="338" width="40" height="30" as="geometry" />
        </mxCell>
      </root>
    </mxGraphModel>
  </diagram>
</mxfile>
